<svg xmlns="http://www.w3.org/2000/svg" viewBox="0 0 902.5 774"><defs><style>.cls-1{fill:#3fa9f5;}</style></defs><g id="Layer_2" data-name="Layer 2"><g id="Layer_1-2" data-name="Layer 1"><path class="cls-1" d="M902.5,574.1V767.9l-.5.14a162.89,162.89,0,0,1-44,6c-50.12,0-93.67-22.13-115.7-54.64A161,161,0,0,1,469,604c0-2.43.05-4.85.17-7.26A186.27,186.27,0,0,1,422,604c-1.49,0-3,0-4.5,0A186.63,186.63,0,0,1,235.61,376.15,193.17,193.17,0,0,1,192.5,381C86.19,381,0,294.81,0,188.5,0,95.63,65.78,18.11,153.28,0H902V574Z"/></g></g></svg>