<svg xmlns="http://www.w3.org/2000/svg" viewBox="0 0 1923 220"><defs><style>.cls-1{fill:#3fa9f5;}.cls-2{fill:#f15a24;}.cls-3{fill:#2e3192;}</style></defs><g id="Layer_2" data-name="Layer 2"><g id="Layer_2-2" data-name="Layer 2"><path class="cls-1" d="M1906.62,220H0V18C155.13,94.49,387,177.71,658,147c97.21-11,152.4-31.35,219-49,456-120.87,1020.58-3.07,1031,108A38.89,38.89,0,0,1,1906.62,220Z"/><path class="cls-2" d="M1921.46,220H0V0C156.34,83.31,390,173.94,663.12,140.5c98-12,153.59-34.15,220.71-53.37,459.52-131.64,1028.52-3.34,1039,117.62A45.74,45.74,0,0,1,1921.46,220Z"/><path class="cls-3" d="M1906.62,220H0V18C155.13,94.49,387,177.71,658,147c97.21-11,152.4-31.35,219-49,456-120.87,1020.58-3.07,1031,108A38.89,38.89,0,0,1,1906.62,220Z"/></g></g></svg>